<svg width="24" height="24" viewBox="0 0 24 24" fill="none" xmlns="http://www.w3.org/2000/svg">
<path d="M12.8438 3V11.1562H21V12.8438H12.8438V21H11.1562V12.8438H3V11.1562H11.1562V3H12.8438ZM17.9062 4.125V6.09375H19.875V7.78125H17.9062V9.75H16.2188V7.78125H14.25V6.09375H16.2188V4.125H17.9062ZM5.53125 14.4961L6.9375 15.9023L7.71094 15.0938L8.30859 14.4961L9.50391 15.6914L8.90625 16.2891L8.09766 17.0625L9.50391 18.4688L8.30859 19.6641L7.71094 19.0664L6.9375 18.2578L5.53125 19.6641L4.33594 18.4688L5.74219 17.0625L4.93359 16.2891L4.33594 15.6914L5.53125 14.4961ZM9.46875 6.09375V7.78125H4.40625V6.09375H9.46875ZM19.5938 14.8125V16.5H14.5312V14.8125H19.5938ZM19.5938 17.625V19.3125H14.5312V17.625H19.5938Z" fill="white"/>
</svg>
