<svg width="56" height="56" viewBox="0 0 56 56" fill="none" xmlns="http://www.w3.org/2000/svg">
<rect width="56" height="56" rx="28" fill="#FA4332"/>
<path d="M19.9883 29.5117L19.7422 30.1445L22.2031 29.582L22.5547 29.4766L22.9414 29.582C23.3633 29.6523 23.8203 29.6875 24.3125 29.6875C27.6875 29.6875 29.9375 27.4375 29.9375 25.1875C29.9375 22.9727 27.6875 20.6875 24.3125 20.6875C20.9023 20.6875 18.6875 22.9727 18.6875 25.1875C18.6875 26.1367 19.0391 27.0156 19.707 27.7891L20.375 28.5625L19.9883 29.5117ZM17 32.5L17.7383 30.6016L18.4414 28.9141C17.5273 27.8594 17 26.5938 17 25.1875C17 21.7773 20.2695 19 24.3125 19C28.3203 19 31.625 21.7773 31.625 25.1875C31.625 28.6328 28.3555 31.375 24.3125 31.375C23.7148 31.375 23.1523 31.3398 22.5898 31.2344L19.0039 32.043L17 32.5ZM32.1875 35.875C29.3047 35.875 26.8086 34.4688 25.6133 32.4297C26.2109 32.3594 26.8086 32.2188 27.3711 32.0078C28.3203 33.2734 30.0078 34.1875 32.1875 34.1875C32.6445 34.1875 33.1016 34.1523 33.5586 34.082L33.9102 34.0117L34.2617 34.082L36.7227 34.6445L36.4766 34.0117L36.0898 33.0625L36.7578 32.2891C37.4258 31.5156 37.8125 30.6367 37.8125 29.6875C37.8125 27.6133 35.8086 25.4688 32.75 25.2227V25.1875C32.75 24.625 32.6445 24.0625 32.5039 23.5352C36.4062 23.6758 39.5 26.3828 39.5 29.6875C39.5 31.0938 38.9375 32.3594 38.0234 33.4141L38.7266 35.1016L39.5 37L37.4961 36.543L33.875 35.7344C33.3125 35.8398 32.75 35.875 32.1875 35.875Z" fill="white"/>
</svg>
