<svg width="23" height="18" viewBox="0 0 23 18" fill="none" xmlns="http://www.w3.org/2000/svg">
<path d="M2.98828 10.5117L2.74219 11.1445L5.20312 10.582L5.55469 10.4766L5.94141 10.582C6.36328 10.6523 6.82031 10.6875 7.3125 10.6875C10.6875 10.6875 12.9375 8.4375 12.9375 6.1875C12.9375 3.97266 10.6875 1.6875 7.3125 1.6875C3.90234 1.6875 1.6875 3.97266 1.6875 6.1875C1.6875 7.13672 2.03906 8.01562 2.70703 8.78906L3.375 9.5625L2.98828 10.5117ZM0 13.5L0.738281 11.6016L1.44141 9.91406C0.527344 8.85938 0 7.59375 0 6.1875C0 2.77734 3.26953 0 7.3125 0C11.3203 0 14.625 2.77734 14.625 6.1875C14.625 9.63281 11.3555 12.375 7.3125 12.375C6.71484 12.375 6.15234 12.3398 5.58984 12.2344L2.00391 13.043L0 13.5ZM15.1875 16.875C12.3047 16.875 9.80859 15.4688 8.61328 13.4297C9.21094 13.3594 9.80859 13.2188 10.3711 13.0078C11.3203 14.2734 13.0078 15.1875 15.1875 15.1875C15.6445 15.1875 16.1016 15.1523 16.5586 15.082L16.9102 15.0117L17.2617 15.082L19.7227 15.6445L19.4766 15.0117L19.0898 14.0625L19.7578 13.2891C20.4258 12.5156 20.8125 11.6367 20.8125 10.6875C20.8125 8.61328 18.8086 6.46875 15.75 6.22266V6.1875C15.75 5.625 15.6445 5.0625 15.5039 4.53516C19.4062 4.67578 22.5 7.38281 22.5 10.6875C22.5 12.0938 21.9375 13.3594 21.0234 14.4141L21.7266 16.1016L22.5 18L20.4961 17.543L16.875 16.7344C16.3125 16.8398 15.75 16.875 15.1875 16.875Z" fill="white"/>
</svg>
