<svg width="71" height="22" viewBox="0 0 71 22" fill="none" xmlns="http://www.w3.org/2000/svg">
<path d="M5.2 11.112H5.648L8.288 5.576H10.256L4.784 17H2.832L4.464 13.576L0.24 5.576H2.288L5.2 11.112ZM14.9125 11.16C14.9125 10.5093 14.3845 10.184 13.3285 10.184C12.3152 10.184 11.7338 10.5307 11.5845 11.224H9.9045C9.98983 10.4027 10.3472 9.768 10.9765 9.32C11.6058 8.872 12.4218 8.648 13.4245 8.648C14.4378 8.648 15.2378 8.86667 15.8245 9.304C16.4112 9.74133 16.7045 10.2907 16.7045 10.952C16.7045 11.7947 16.4272 12.328 15.8725 12.552V12.936C16.5978 13.1493 16.9605 13.736 16.9605 14.696C16.9605 15.4213 16.6405 16.024 16.0005 16.504C15.3712 16.9733 14.5178 17.208 13.4405 17.208C12.2778 17.208 11.3712 16.9787 10.7205 16.52C10.0805 16.0507 9.70717 15.4 9.6005 14.568H11.2965C11.5098 15.304 12.2032 15.672 13.3765 15.672C14.5605 15.672 15.1525 15.3147 15.1525 14.6C15.1525 14.2587 15.0352 14.008 14.8005 13.848C14.5658 13.6773 14.1712 13.592 13.6165 13.592H12.2245V12.12H13.5365C14.4538 12.12 14.9125 11.8 14.9125 11.16ZM26.2694 17H24.4614V13.592H20.5254V17H18.7174V8.856H20.5254V12.056H24.4614V8.856H26.2694V17ZM33.5323 17V16.248H33.1483C32.6363 16.888 31.8363 17.208 30.7483 17.208C29.8523 17.208 29.1429 16.952 28.6203 16.44C28.0976 15.9173 27.8363 15.2827 27.8363 14.536C27.8363 13.8 28.1029 13.16 28.6363 12.616C29.1696 12.072 29.9803 11.8 31.0683 11.8H33.4683V11.56C33.4683 10.568 32.8976 10.072 31.7563 10.072C30.7429 10.072 30.1989 10.4187 30.1243 11.112H28.3323C28.3749 10.3547 28.7003 9.75733 29.3083 9.32C29.9269 8.872 30.7216 8.648 31.6923 8.648C32.7909 8.648 33.6496 8.89333 34.2683 9.384C34.8976 9.87467 35.2123 10.6107 35.2123 11.592V17H33.5323ZM31.3083 15.736C31.9163 15.736 32.4283 15.5387 32.8443 15.144C33.2603 14.7493 33.4683 14.2693 33.4683 13.704V13.08H31.3883C30.2363 13.08 29.6603 13.528 29.6603 14.424C29.6603 14.84 29.8043 15.1653 30.0923 15.4C30.3803 15.624 30.7856 15.736 31.3083 15.736ZM36.5125 10.392V8.856H43.8085V10.392H41.0725V17H39.2645V10.392H36.5125ZM47.0185 8.856V11.384H49.2105C50.2345 11.384 51.0185 11.6293 51.5625 12.12C52.1065 12.6 52.3785 13.2773 52.3785 14.152C52.3785 15.0373 52.1012 15.736 51.5465 16.248C51.0025 16.7493 50.2238 17 49.2105 17H45.2105V8.856H47.0185ZM47.0185 15.464H48.9545C49.5412 15.464 49.9572 15.3573 50.2025 15.144C50.4478 14.92 50.5705 14.5893 50.5705 14.152C50.5705 13.7147 50.4478 13.3893 50.2025 13.176C49.9572 12.952 49.5412 12.84 48.9545 12.84H47.0185V15.464Z" fill="#FA4332"/>
<path d="M63 8.5L67 13.5L59 13.5L63 8.5Z" fill="#FA4332"/>
</svg>
