<svg width="256" height="256" viewBox="0 0 256 256" fill="none" xmlns="http://www.w3.org/2000/svg">
<g clip-path="url(#clip0_395_9121)">
<path d="M62.6379 133.687C62.467 134.086 61.8973 134.086 61.7264 133.687C52.7826 115.682 45.206 97.1643 39.1105 78.0196C38.8826 77.2219 39.3384 76.4242 40.1359 76.2533C59.6187 71.695 79.4432 68.9601 99.4387 67.9345C100.008 67.8775 100.122 68.1054 99.8375 68.6182L90.5518 82.5779C90.21 83.0907 90.267 83.5465 90.8366 83.8314C121.2 101.609 151.222 119.956 181.471 137.961C203.176 150.895 223.627 165.652 242.825 182.176C243.338 182.632 243.736 182.518 243.964 181.891L249.832 167.419C250.003 167.02 249.946 166.564 249.775 166.222C238.211 144.285 224.652 133.801 202.207 116.48C188.706 106.053 174.92 95.6829 160.963 85.5408C160.507 85.1989 159.881 85.3698 159.653 85.8256L151.564 100.127C151.336 100.526 150.709 100.583 150.481 100.127C138.86 80.5836 126.441 61.5529 113.111 43.0919C112.769 42.5791 112.883 42.3512 113.51 42.2942C135.898 41.3256 158.115 42.6361 180.218 46.2827C181.016 46.3966 181.187 46.7955 180.788 47.5362L176.23 55.6841C175.775 56.4818 175.946 57.4504 176.686 58.0202C197.764 75.2277 222.659 93.8596 239.236 115.397C245.616 123.659 249.946 134.143 254.275 144.057C254.56 144.684 254.731 144.684 254.788 144.001C255.984 135.055 256.269 129.357 255.756 126.907C251.028 104.23 237.755 87.649 223.456 70.3275C222.886 69.6438 222.488 69.7008 222.317 70.6124L220.893 78.0196C220.779 78.6464 219.924 78.7603 219.639 78.1906C210.126 61.211 198.675 45.7129 185.231 31.6393C184.491 30.8416 184.605 30.5567 185.687 30.8985C198.903 34.6021 211.265 40.0721 222.886 47.3653C223.399 47.7071 223.741 48.163 223.798 48.7897L224.311 53.0061C224.368 53.5759 224.595 54.0887 224.937 54.4876C235.476 67.6496 245.388 79.9569 250.857 96.1957C251.028 96.7085 251.256 96.9934 251.484 97.1074C251.883 97.2783 251.997 97.1074 251.883 96.7655C242.483 62.1227 223 35.9696 193.548 18.3063C122.169 -24.4844 31.1921 11.184 6.06956 89.5292C-15.6349 157.049 22.8749 229.126 89.6403 250.094C110.718 256.704 136.638 258.242 157.488 252.259C164.495 250.265 164.438 249.866 157.203 251.12C142.677 253.627 127.011 250.949 112.37 248.898C111.801 248.841 111.231 248.898 110.661 249.183L107.129 250.778C106.674 251.006 106.161 250.949 105.705 250.721C93.3432 244.339 82.2916 236.248 72.4932 226.391C72.3223 226.22 72.4932 225.878 72.7781 225.935C91.8051 230.437 111.174 232.659 130.771 232.488C131.397 232.488 131.625 233.229 131.226 233.627L125.814 238.3C125.188 238.869 125.473 239.952 126.327 240.066C148.544 242.972 167.002 247.017 190.586 239.496C193.434 238.585 198.106 235.508 204.543 230.209C204.999 229.867 204.942 229.696 204.372 229.753C184.718 231.69 168.255 232.488 149.228 225.992C129.916 219.44 110.661 212.545 91.5202 205.252C90.7227 204.967 89.8112 205.252 89.4125 205.993L84.6272 213.913C84.2285 214.597 83.7727 214.654 83.26 214.027C69.1322 196.876 56.8842 178.472 46.6302 158.815C46.3453 158.188 46.5162 157.96 47.1998 158.017C69.8158 160.182 92.4317 161.379 115.162 161.493C115.674 161.493 115.959 162.063 115.731 162.462L107.015 177.048C106.844 177.333 106.958 177.732 107.3 177.846C123.137 184.911 139.088 191.748 155.096 198.358C181.187 209.127 196.909 215.565 221.69 214.654C222.26 214.654 222.773 214.369 223.114 213.913L232.685 201.663C233.084 201.15 232.97 200.808 232.343 200.637C212.348 193.857 193.036 185.481 174.464 175.453C139.885 156.764 105.591 137.79 71.5248 118.474C70.8412 118.075 69.9297 118.36 69.6449 119.101L62.6379 133.687Z" fill="#FA4332"/>
</g>
<defs>
<clipPath id="clip0_395_9121">
<rect width="256" height="256" fill="white"/>
</clipPath>
</defs>
</svg>
