<svg xmlns="http://www.w3.org/2000/svg" viewBox="0 0 56 56" width="56" height="56">
  <circle cx="28" cy="28" r="28" fill="#de2910"/>
  <g fill="#ffde00">
    <polygon points="14.5,17.4 16.7,21.6 21.4,22.3 18,25.6 18.8,30.3 14.5,28.1 10.2,30.3 11,25.6 7.6,22.3 12.3,21.6"/>
    <polygon points="25.5,12 26.4,13.6 28.2,13.9 26.9,15.1 27.2,16.9 25.5,16 23.8,16.9 24.1,15.1 22.8,13.9 24.6,13.6"/>
    <polygon points="29.5,17.5 30.4,19.1 32.2,19.4 30.9,20.6 31.2,22.4 29.5,21.5 27.8,22.4 28.1,20.6 26.8,19.4 28.6,19.1"/>
    <polygon points="29.5,25 30.4,26.6 32.2,26.9 30.9,28.1 31.2,29.9 29.5,29 27.8,29.9 28.1,28.1 26.8,26.9 28.6,26.6"/>
    <polygon points="25.5,30 26.4,31.6 28.2,31.9 26.9,33.1 27.2,34.9 25.5,34 23.8,34.9 24.1,33.1 22.8,31.9 24.6,31.6"/>
  </g>
</svg>
