<svg width="32" height="32" viewBox="0 0 32 32" fill="none" xmlns="http://www.w3.org/2000/svg">
<path d="M10 5C10 5.1875 10.0625 5.4375 10.5 5.8125C10.5625 5.875 10.6875 6 10.75 6.0625C9.8125 6.0625 8.875 6.1875 8 6.3125V5C8 4.0625 8.5 3.3125 9.1875 2.6875C9.875 2.125 10.8125 1.625 11.875 1.25C14 0.5 16.875 0 20 0C23.125 0 25.9375 0.5 28.0625 1.25C29.125 1.625 30.0625 2.125 30.75 2.6875C31.4375 3.3125 32 4.0625 32 5V18.625C32 19.625 31.4375 20.4375 30.75 21C30.125 21.625 29.1875 22.125 28.125 22.5625C27.4375 22.8125 26.75 23 26 23.1875V21.125C26.5 21 26.9375 20.8125 27.375 20.6875C28.3125 20.3125 29 19.9375 29.4375 19.5625C29.875 19.125 30 18.875 30 18.625V14.5C29.4375 14.875 28.8125 15.1875 28.125 15.4375C27.4375 15.6875 26.75 15.875 26 16.0625V14C26.5 13.875 26.9375 13.75 27.375 13.5625C28.3125 13.1875 29 12.8125 29.4375 12.4375C29.875 12.0625 30 11.75 30 11.5625V7.9375C29.4375 8.25 28.8125 8.5625 28.125 8.8125C27 9.1875 25.75 9.5 24.375 9.6875C24.25 9.625 24.125 9.5 24 9.375C23.375 8.8125 22.625 8.375 21.875 7.9375C24.0625 7.8125 25.9375 7.4375 27.4375 6.9375C28.3125 6.5625 29 6.1875 29.4375 5.8125C29.875 5.4375 30 5.1875 30 5C30 4.875 29.875 4.625 29.4375 4.25C29 3.875 28.375 3.5 27.4375 3.125C25.5625 2.4375 22.9375 2 20 2C17 2 14.375 2.4375 12.5625 3.125C11.625 3.5 10.9375 3.875 10.5 4.25C10.0625 4.625 9.9375 4.875 9.9375 5H10ZM2 13C2 13.1875 2.0625 13.4375 2.5 13.8125C2.9375 14.1875 3.625 14.5625 4.5625 14.9375C6.375 15.5625 9 16 12 16C14.9375 16 17.5625 15.5625 19.4375 14.9375C20.3125 14.5625 21 14.1875 21.4375 13.8125C21.875 13.4375 22 13.1875 22 13C22 12.875 21.875 12.625 21.4375 12.25C21 11.875 20.375 11.5 19.4375 11.125C17.5625 10.4375 14.9375 10 12 10C9 10 6.375 10.4375 4.5625 11.125C3.625 11.5 2.9375 11.875 2.5 12.25C2.0625 12.625 1.9375 12.875 1.9375 13H2ZM0 13C0 12.0625 0.5 11.3125 1.1875 10.6875C1.875 10.125 2.8125 9.625 3.875 9.25C6 8.5 8.875 8 12 8C15.125 8 17.9375 8.5 20.0625 9.25C21.125 9.625 22.0625 10.125 22.75 10.6875C23.4375 11.3125 24 12.0625 24 13V26.625C24 27.625 23.4375 28.375 22.75 29C22.125 29.625 21.1875 30.125 20.125 30.5625C18 31.375 15.125 31.8125 12 31.8125C8.875 31.8125 5.9375 31.375 3.8125 30.5625C2.75 30.125 1.875 29.625 1.1875 29C0.5 28.4375 0 27.625 0 26.625V13ZM22 15.9375C21.4375 16.25 20.8125 16.5625 20.0625 16.8125C17.9375 17.5625 15.125 18 12 18C8.875 18 6 17.5625 3.875 16.8125C3.1875 16.5625 2.5 16.25 2 15.9375V19.5C2 19.75 2.0625 20 2.5 20.4375C2.9375 20.8125 3.625 21.1875 4.5625 21.5625C6.375 22.25 9 22.6875 12 22.6875C14.9375 22.6875 17.5625 22.25 19.375 21.5625C20.3125 21.1875 21 20.8125 21.4375 20.4375C21.875 20 22 19.75 22 19.5V15.9375ZM2 26.625C2 26.8125 2.0625 27.125 2.5 27.5625C2.9375 27.9375 3.625 28.3125 4.5625 28.6875C6.375 29.375 9 29.8125 12 29.8125C14.9375 29.8125 17.5625 29.375 19.375 28.6875C20.3125 28.3125 21 27.9375 21.4375 27.5625C21.875 27.125 22 26.875 22 26.625V22.5C21.4375 22.875 20.8125 23.1875 20.125 23.4375C18 24.25 15.125 24.6875 12 24.6875C8.875 24.6875 5.9375 24.25 3.8125 23.4375C3.125 23.1875 2.5 22.875 2 22.5V26.625Z" fill="#FA4332"/>
</svg>
