<svg width="178" height="40" viewBox="0 0 178 40" fill="none" xmlns="http://www.w3.org/2000/svg">
<path d="M9.7891 20.8887C9.76239 20.951 9.67336 20.951 9.64665 20.8887C8.2489 18.0754 7.06482 15.1819 6.11222 12.1906C6.0766 12.0659 6.14783 11.9413 6.27247 11.9146C9.31725 11.2023 12.4154 10.775 15.5404 10.6148C15.6294 10.6059 15.6472 10.6415 15.6027 10.7216L14.1515 12.9028C14.0981 12.9829 14.107 13.0541 14.196 13.0987C18.9412 15.8764 23.6331 18.7431 28.3605 21.5564C31.7525 23.5773 34.9486 25.8832 37.9489 28.465C38.029 28.5362 38.0913 28.5184 38.1269 28.4205L39.0439 26.1592C39.0706 26.0968 39.0617 26.0256 39.035 25.9722C37.2277 22.5446 35.1088 20.9065 31.6011 18.2C29.4911 16.5708 27.3366 14.9505 25.1554 13.3657C25.0842 13.3123 24.9863 13.339 24.9507 13.4103L23.6865 15.6449C23.6509 15.7072 23.5529 15.7161 23.5173 15.6449C21.7011 12.5912 19.7603 9.61764 17.677 6.73311C17.6236 6.65298 17.6414 6.61737 17.7394 6.60847C21.2382 6.45712 24.7103 6.66189 28.1646 7.23167C28.2893 7.24948 28.316 7.3118 28.2536 7.42753L27.5414 8.70064C27.4702 8.82528 27.4969 8.97663 27.6126 9.06566C30.9067 11.7543 34.7972 14.6656 37.388 18.0308C38.3851 19.3218 39.0617 20.9599 39.7383 22.509C39.7829 22.6069 39.8096 22.6069 39.8185 22.5001C40.0054 21.1023 40.0499 20.212 39.9698 19.8292C39.2309 16.2859 37.1565 13.6951 34.9219 10.9887C34.8329 10.8818 34.7705 10.8907 34.7438 11.0332L34.5213 12.1906C34.5035 12.2885 34.3699 12.3063 34.3254 12.2173C32.8386 9.56422 31.0491 7.14264 28.9481 4.94363C28.8323 4.81899 28.8501 4.77448 29.0193 4.8279C31.0848 5.40658 33.0167 6.26126 34.8329 7.40082C34.913 7.45424 34.9664 7.52546 34.9753 7.6234L35.0554 8.28221C35.0643 8.37124 35.0999 8.45136 35.1534 8.51368C36.8004 10.5702 38.3495 12.4933 39.2042 15.0306C39.2309 15.1107 39.2665 15.1552 39.3021 15.173C39.3644 15.1997 39.3822 15.173 39.3644 15.1196C37.8954 9.70667 34.8507 5.62025 30.2479 2.86036C19.0926 -3.82569 4.87472 1.74751 0.948555 13.9889C-2.44344 24.5388 3.5749 35.801 14.0091 39.0772C17.3031 40.1099 21.3539 40.3503 24.6124 39.4155C25.7074 39.1039 25.6985 39.0416 24.5679 39.2375C22.2976 39.6292 19.8493 39.2108 17.5613 38.8903C17.4723 38.8814 17.3832 38.8903 17.2942 38.9348L16.7422 39.184C16.671 39.2197 16.5909 39.2108 16.5197 39.1751C14.5877 38.178 12.8606 36.9138 11.3293 35.3736C11.3026 35.3469 11.3293 35.2935 11.3738 35.3024C14.3474 36.0057 17.3743 36.3529 20.4369 36.3262C20.5349 36.3262 20.5705 36.442 20.5082 36.5043L19.6624 37.2343C19.5644 37.3233 19.609 37.4925 19.7425 37.5103C23.2146 37.9644 26.0991 38.5965 29.7849 37.4213C30.2301 37.2788 30.9601 36.7981 31.9661 35.9701C32.0374 35.9167 32.0285 35.89 31.9394 35.8989C28.8679 36.2016 26.295 36.3262 23.3215 35.3113C20.3034 34.2875 17.2942 33.2102 14.3029 32.0707C14.1782 32.0261 14.0358 32.0707 13.9734 32.1864L13.2256 33.4239C13.1633 33.5307 13.0921 33.5396 13.0119 33.4417C10.804 30.7619 8.88991 27.8863 7.2874 24.8148C7.24288 24.7169 7.26959 24.6813 7.37642 24.6902C10.9109 25.0285 14.4453 25.2155 17.9975 25.2333C18.0777 25.2333 18.1222 25.3223 18.0866 25.3846L16.7244 27.6637C16.6977 27.7083 16.7155 27.7706 16.7689 27.7884C19.2439 28.8923 21.7367 29.9607 24.2384 30.9934C28.316 32.6761 30.7732 33.6821 34.6459 33.5396C34.7349 33.5396 34.8151 33.4951 34.8685 33.4239L36.3642 31.5098C36.4265 31.4297 36.4087 31.3762 36.3107 31.3495C33.1858 30.2901 30.1678 28.9814 27.2654 27.4145C21.8614 24.4943 16.5019 21.5297 11.1779 18.5116C11.0711 18.4493 10.9287 18.4938 10.8842 18.6095L9.7891 20.8887Z" fill="#FA4332"/>
<path fill-rule="evenodd" clip-rule="evenodd" d="M65.697 7.94395C63.4303 10.4817 63.4027 14.9057 66.1156 17.2924C68.2143 19.1431 71.3076 19.4728 73.9485 18.9031C77.0427 18.2275 79.0356 16.0284 79.2747 12.9031C79.6925 7.60617 75.5494 5.34394 70.8729 5.6835C68.889 5.82483 67.0312 6.44795 65.697 7.94395ZM70.2676 16.9537C66.0356 16.2062 65.6081 9.7244 69.3512 8.14929V8.1484C70.8729 7.5084 73.0854 7.50839 74.4996 8.31817C75.6463 8.97683 76.2961 10.0719 76.4472 11.6302C76.8561 15.7253 73.9307 17.6044 70.2676 16.9537ZM63.0747 5.97595C60.6703 7.41239 58.3867 9.04084 56.2445 10.8462C56.2098 10.8817 56.2098 10.9351 56.2098 10.9804C56.7752 11.6906 57.3396 12.4017 57.9058 13.1146C58.6667 14.0728 59.4285 15.032 60.193 15.992C61.025 17.0391 61.9876 17.9759 63.0561 18.7786C63.1183 18.8231 63.1103 18.8408 63.0383 18.8408H58.1832C58.1032 18.8408 58.0854 18.8142 58.1396 18.7519C58.4063 18.4488 58.3974 18.1022 58.0943 17.7191C56.761 15.9919 55.4178 14.2817 54.0578 12.5822C54.0223 12.5377 53.9867 12.5288 53.9423 12.5644L50.9814 14.8444C50.9281 14.8791 50.9014 14.9333 50.9014 14.9955C50.8214 16.2951 50.7583 17.8799 51.8356 18.7519C51.9058 18.8053 51.897 18.8408 51.7992 18.8408H47.4774C47.3707 18.8408 47.3627 18.8142 47.4427 18.7431C47.985 18.2888 48.2792 17.6924 48.3227 16.936C48.4374 14.9502 48.4045 12.9271 48.3716 10.9137C48.3565 9.96706 48.3405 9.02306 48.3405 8.08617C48.3494 7.24084 48.0383 6.54573 47.4338 6.00351C47.3538 5.9324 47.3707 5.89595 47.4774 5.89595H51.8614C51.9769 5.89595 51.9858 5.93239 51.897 5.9955C51.3823 6.37683 51.0881 6.78751 51.0267 7.20529C50.8472 8.39818 50.8214 10.0097 50.9467 12.0302C50.9547 12.0933 50.9814 12.1013 51.0267 12.0657C52.9521 10.5919 54.8721 9.11106 56.7867 7.62306C56.8685 7.55906 56.9467 7.4995 57.0214 7.44261C57.5956 7.00528 57.9645 6.72528 57.7841 5.98483C57.7663 5.9235 57.793 5.88706 57.8534 5.88706H63.0472C63.1636 5.88706 63.1725 5.9235 63.0747 5.97595ZM84.5307 8.02395C84.5041 7.96173 84.425 7.98039 84.425 8.04172C84.4081 10.8435 84.4045 13.6444 84.4143 16.4462C84.425 17.4524 84.7538 18.2364 85.393 18.7884C85.4383 18.8231 85.4294 18.8408 85.3752 18.8408H81.0632C81.0009 18.8408 80.9921 18.8231 81.0445 18.7786C81.6863 18.2711 82.0143 17.6302 82.0232 16.8471C82.0418 15.3253 82.0418 12.4399 82.0143 8.17506C82.0063 7.2675 81.7032 6.53684 81.1076 5.99373C81.0365 5.92351 81.0552 5.88706 81.1521 5.88706H86.6027C86.6916 5.88706 86.7094 5.92351 86.657 5.99373C86.4783 6.24351 86.4507 6.45683 86.577 6.75106C87.945 9.90306 89.3147 13.0542 90.7014 16.1884C90.7201 16.2239 90.7636 16.2239 90.7814 16.1884C92.0827 13.0693 93.3689 9.94395 94.641 6.81328C94.7387 6.58128 94.6952 6.3155 94.5067 6.02128C94.4543 5.93239 94.4721 5.88706 94.5787 5.88706H100.074C100.172 5.88706 100.181 5.9235 100.109 5.98483C99.4961 6.51106 99.185 7.17772 99.1752 7.99728C99.1503 10.8844 99.1476 13.7715 99.1672 16.6595C99.1761 17.5502 99.4872 18.2533 100.1 18.7786C100.154 18.8231 100.145 18.8497 100.074 18.8497H95.7076C95.6098 18.8497 95.601 18.8231 95.673 18.7608C96.2952 18.2275 96.6152 17.5591 96.6152 16.7493C96.633 13.7493 96.633 10.7662 96.6232 7.78394C96.6232 7.7395 96.5707 7.72973 96.5521 7.76617C96.3956 8.14928 96.2383 8.5324 96.0818 8.91462C94.8152 12.0026 93.5521 15.0844 92.3032 18.1733C92.2374 18.3599 92.2312 18.5617 92.2845 18.7519C92.3032 18.8231 92.2747 18.8595 92.2045 18.8595H89.057C88.9592 18.8595 88.9147 18.8142 88.9414 18.7164L88.9947 18.4942C89.0116 18.4222 89.0045 18.3475 88.977 18.28L84.5307 8.02395ZM176.41 8.98572C176.387 8.94306 176.353 8.90573 176.312 8.87906C172.676 6.47551 166.975 7.65951 167.375 12.992C167.766 18.1377 173.795 17.6035 176.979 15.7431C177.032 15.7075 177.112 15.752 177.112 15.8231V18.6453C177.112 18.7075 177.085 18.7342 177.023 18.6995C176.837 18.6008 176.677 18.5653 176.533 18.592C174.231 18.992 172.293 19.3217 170.204 19.0204C166.397 18.4675 164.29 15.8675 164.62 11.8702C164.921 8.16706 167.757 5.7804 171.377 5.64706C172.816 5.59817 174.182 5.77773 175.574 5.96084C175.936 6.00884 176.301 6.05684 176.668 6.10128C176.916 6.13595 177.137 6.10572 177.369 6.07461C177.437 6.06483 177.504 6.05595 177.574 6.04795C177.637 6.04795 177.654 6.06483 177.637 6.12794L176.64 9.00351C176.622 9.05684 176.597 9.0755 176.542 9.0755C176.49 9.0755 176.436 9.03906 176.41 8.98572ZM109.917 7.99728C109.845 7.99728 109.81 8.03284 109.81 8.10395C109.799 10.8373 109.821 13.5715 109.873 16.304C109.882 17.3004 109.934 18.12 110.814 18.7697C110.877 18.8142 110.869 18.8319 110.797 18.8319H106.387C106.298 18.8319 106.289 18.8053 106.36 18.7519C106.973 18.2711 107.276 17.6568 107.294 16.9271C107.321 15.1822 107.321 12.2355 107.294 8.06929C107.294 8.00617 107.258 7.97151 107.197 7.97151L107.074 7.97239C104.973 7.98928 103.551 8.00083 101.745 9.11906C101.656 9.17239 101.63 9.15551 101.656 9.05684C101.706 8.88528 101.79 8.6515 101.885 8.3875C102.176 7.57328 102.572 6.47106 102.403 5.99373C102.377 5.92351 102.403 5.88706 102.474 5.88706H114.683C114.789 5.88706 114.817 5.93239 114.781 6.03017L114.674 6.29683C114.657 6.32972 114.648 6.36617 114.646 6.40351C114.645 6.43995 114.651 6.47639 114.665 6.51106L115.555 9.05684C115.581 9.13684 115.555 9.1555 115.483 9.11017C113.66 7.96173 111.997 7.95284 109.917 7.99728ZM120.105 14.9608C120.11 14.7502 120.116 14.5546 120.116 14.3813C120.116 14.3013 120.16 14.2639 120.223 14.2737C120.535 14.2773 120.883 14.2879 121.255 14.2995C124.59 14.4035 129.916 14.5688 129.924 10.1164C129.933 6.94751 127.416 5.94129 124.686 5.95906C123.29 5.96706 120.613 5.95017 116.665 5.89595C116.568 5.89595 116.559 5.9324 116.63 5.99373C116.928 6.25862 117.166 6.58306 117.329 6.94751C117.492 7.31106 117.575 7.70573 117.573 8.10395C117.599 10.5084 117.599 13.392 117.573 16.7484C117.573 17.5857 117.261 18.2622 116.648 18.7884C116.604 18.8319 116.613 18.8488 116.674 18.8488L121.05 18.8595C121.139 18.8595 121.147 18.832 121.085 18.7697C121.025 18.7128 120.962 18.6595 120.9 18.6062C120.741 18.4711 120.585 18.3395 120.49 18.1466C120.044 17.2391 120.078 15.9386 120.105 14.9608ZM120.134 12.1555L120.116 8.0515C120.116 8.02395 120.134 8.00617 120.169 7.98839L124.757 7.97151C126.065 7.97151 127.132 8.7635 127.132 9.75106V10.3831C127.132 11.3724 126.074 12.1822 124.766 12.1822L120.178 12.1999C120.151 12.1999 120.134 12.1822 120.134 12.1555ZM134.725 15.9742H142.452C142.482 15.9742 142.51 15.9822 142.536 15.9982C142.561 16.0142 142.581 16.0364 142.594 16.0631C142.611 16.0995 142.629 16.1368 142.646 16.1742C143.053 17.0373 143.508 18.0008 142.843 18.7519C142.781 18.8142 142.798 18.8497 142.887 18.8497H146.862C146.942 18.8497 146.959 18.8231 146.907 18.7608C146.293 18.0488 145.893 17.4968 145.706 17.0871C144.079 13.6239 142.47 10.16 140.878 6.67995C140.789 6.48351 140.842 6.26129 141.037 6.00351C141.092 5.9324 141.074 5.89595 140.985 5.89595H136.468C136.405 5.89595 136.388 5.9235 136.414 5.98483C136.574 6.29683 136.548 6.65328 136.361 7.06306C134.81 10.3813 133.239 13.6906 131.649 16.9902C131.489 17.328 131.07 17.9155 130.403 18.7697C130.359 18.8231 130.368 18.8497 130.439 18.8497H134.556C134.672 18.8497 134.681 18.8142 134.592 18.7519C133.693 18.0755 134.093 16.8648 134.609 16.0373C134.636 15.992 134.672 15.9742 134.725 15.9742ZM135.677 13.8817C135.631 13.8817 135.605 13.8293 135.622 13.7937L138.566 7.71195C138.584 7.66839 138.645 7.66839 138.673 7.71195L141.589 13.8017C141.607 13.8471 141.581 13.8915 141.536 13.8915L135.677 13.8817ZM159.293 13.0364C159.293 12.9831 159.266 12.9564 159.213 12.9564V12.9475H151.522C151.459 12.9475 151.424 12.9831 151.424 13.0453C151.42 13.3235 151.405 13.6293 151.39 13.9511C151.313 15.6222 151.215 17.7431 152.349 18.7884C152.393 18.8231 152.384 18.8408 152.331 18.8408H147.973C147.902 18.8408 147.902 18.8231 147.948 18.7786C148.56 18.2444 148.863 17.5679 148.872 16.7315C148.889 14.9511 148.889 12.0844 148.881 8.12173C148.881 7.24084 148.57 6.51906 147.938 5.97595C147.868 5.91373 147.876 5.87817 147.973 5.87817H152.393C152.446 5.87817 152.454 5.89595 152.411 5.93239C151.277 6.87728 151.348 8.58395 151.409 10.0453C151.419 10.2906 151.429 10.5297 151.433 10.7573C151.433 10.8204 151.468 10.8471 151.522 10.8471L159.168 10.8373C159.257 10.8373 159.302 10.7928 159.302 10.7128C159.307 10.5946 159.313 10.4719 159.319 10.3448C159.39 8.90484 159.485 6.96795 158.341 5.99373C158.244 5.91373 158.261 5.87906 158.386 5.87906H162.761C162.831 5.87906 162.841 5.90484 162.788 5.95906C162.191 6.4844 161.872 7.22306 161.845 8.17506C161.774 10.6595 161.774 13.5173 161.845 16.7493C161.872 17.6044 162.182 18.2799 162.788 18.7786C162.841 18.8231 162.831 18.8408 162.761 18.8408H158.341C158.253 18.8408 158.244 18.8142 158.314 18.7608C159.527 17.8542 159.415 15.5706 159.325 13.7244C159.312 13.4862 159.301 13.256 159.293 13.0364Z" fill="white"/>
<path fill-rule="evenodd" clip-rule="evenodd" d="M83.3627 31.5955C83.3361 31.6222 83.2925 31.6133 83.2925 31.5689C83.2827 29.1564 83.2827 26.7342 83.3005 24.3049C83.3103 23.3964 83.6214 22.6577 84.2436 22.0968C84.3059 22.0426 84.297 22.0168 84.2081 22.0168L80.0827 22.0257C79.985 22.0257 79.9752 22.0604 80.0463 22.1137C80.9725 22.8729 80.9894 23.7022 81.0143 24.9751L81.0152 25.008C81.0454 26.392 81.0339 27.864 81.0214 29.5804C81.0107 30.976 80.9992 32.5333 81.0072 34.3377C81.0072 34.4977 80.9094 34.6844 80.7227 34.8897C80.6685 34.944 80.6774 34.9697 80.7574 34.9697H84.2534C84.305 34.9697 84.3334 34.944 84.3139 34.8897C84.2525 34.6044 84.3503 34.2933 84.5992 33.9546C86.7334 31.1244 88.8765 28.2844 91.0276 25.4444C91.0552 25.4089 91.0987 25.4257 91.0987 25.4702C91.129 27.8506 91.1227 30.2311 91.081 32.6106C91.0641 33.6168 90.8952 34.2844 90.1476 34.872C90.0587 34.944 90.0676 34.9786 90.1832 34.9786H94.3085C94.3885 34.9786 94.3885 34.9528 94.3361 34.9075C93.7139 34.3733 93.4019 33.7057 93.393 32.8862C93.3734 30.0142 93.377 27.1413 93.4019 24.2684C93.4107 23.3609 93.7227 22.6382 94.345 22.1137C94.4152 22.0515 94.4063 22.0257 94.3085 22.0257H90.0756C90.0143 22.0257 89.9867 22.0604 90.0054 22.1235C90.0943 22.4346 90.0143 22.7555 89.7476 23.1022C88.521 24.7386 87.2872 26.3777 86.0516 28.0195L86.0507 28.0213L86.0383 28.0382C85.1467 29.2222 84.2543 30.408 83.3627 31.5955Z" fill="white"/>
<path d="M106.317 27.8826H106.314V27.1244V27.1226C106.316 27.376 106.317 27.6293 106.317 27.8826Z" fill="white"/>
<path fill-rule="evenodd" clip-rule="evenodd" d="M59.0978 32.0951H51.3707C51.3174 32.0951 51.2818 32.1129 51.2551 32.1573C50.7396 32.9857 50.3387 34.1955 51.2374 34.8728C51.3263 34.9351 51.3174 34.9706 51.2018 34.9706H47.0854C47.0143 34.9706 47.0054 34.944 47.0489 34.8906C47.7165 34.0355 48.1343 33.4489 48.2943 33.1102C49.8845 29.8106 51.4551 26.5022 53.0063 23.184C53.1929 22.7733 53.2205 22.4177 53.0605 22.1057C53.0338 22.0435 53.0516 22.0168 53.1138 22.0168H57.6311C57.72 22.0168 57.7378 22.0524 57.6836 22.1235C57.488 22.3813 57.4347 22.6035 57.5236 22.8009C59.1156 26.2809 60.7245 29.7448 62.352 33.208C62.5387 33.6177 62.9387 34.1697 63.552 34.8817C63.6054 34.944 63.5885 34.9706 63.5085 34.9706H59.5334C59.4445 34.9706 59.4267 34.9351 59.488 34.8728C60.1538 34.1208 59.6996 33.1582 59.2925 32.2951L59.24 32.184C59.2267 32.1573 59.2063 32.1342 59.1814 32.1191C59.1565 32.1031 59.1271 32.0951 59.0978 32.0951ZM52.2685 29.9146C52.2516 29.9493 52.2774 30.0026 52.3227 30.0026L58.1823 30.0115C58.2258 30.0115 58.2534 29.968 58.2347 29.9226L55.3183 23.8329C55.2916 23.7884 55.2294 23.7884 55.2116 23.8329L52.2685 29.9146Z" fill="white"/>
<path d="M65.6472 22.1946C65.585 22.1946 65.5672 22.2213 65.5939 22.2835C65.665 22.4222 65.6996 22.5706 65.6987 22.728L65.6472 25.3946C65.6472 25.3946 67.8223 23.5724 70.7156 23.6613C72.3112 23.6613 74.0152 24.0524 74.0001 25.528C73.985 26.9946 72.3556 27.3502 70.7156 27.3502C69.1112 27.3502 68.6223 27.128 68.6223 27.128V29.5724C68.6223 29.5724 70.1334 29.128 71.3779 29.3057C72.6223 29.4835 74.3556 29.4835 74.4445 31.3057C74.5334 33.128 71.8668 33.5724 69.3779 33.2613C66.889 32.9502 65.1556 31.4835 65.1556 31.4835L65.2001 33.7502V34.5946C65.2001 34.5946 65.4223 34.4826 66.1334 34.6391C67.1112 34.8542 67.9396 35.2444 70.1334 35.3502C74.9779 35.5831 77.8668 33.8835 77.6001 31.3057C77.3334 28.728 74.6223 28.2391 74.6223 28.2391C74.6223 28.2391 77.6001 27.3502 77.0223 24.8169C76.4445 22.2835 74.0445 21.8391 71.3334 21.7057C68.6223 21.5724 66.6668 22.2835 66.2668 22.2835C65.8668 22.2835 65.6472 22.1946 65.6472 22.1946Z" fill="white"/>
<path fill-rule="evenodd" clip-rule="evenodd" d="M106.317 27.8826H106.314V27.1244C106.316 27.3777 106.317 27.6302 106.317 27.8826Z" fill="white"/>
<path fill-rule="evenodd" clip-rule="evenodd" d="M110.523 22.1049C110.593 22.0426 110.584 22.0168 110.486 22.0168H102.668C99.0223 22.016 97.3779 23.3946 97.3343 25.7502C97.3005 27.5937 98.0276 28.936 100.562 29.4657C100.184 29.4657 99.225 30.8542 98.4045 32.0426L98.4036 32.0435C98.0659 32.5315 97.7521 32.9866 97.5112 33.2968C96.489 34.6142 95.9228 34.8809 95.9228 34.8809C95.8685 34.9342 95.8774 34.9609 95.9574 34.9609H99.4534C99.505 34.9609 99.5334 34.9342 99.5139 34.8809C99.4525 34.5955 99.5503 34.2844 99.7992 33.9457C100.862 32.536 101.927 31.1244 102.995 29.7111L106.314 29.7493C106.309 30.7004 106.298 31.6515 106.281 32.6017C106.264 33.608 106.095 34.2755 105.348 34.8631C105.259 34.9342 105.268 34.9697 105.383 34.9697H110.486C110.566 34.9697 110.566 34.944 110.514 34.8986C109.892 34.3644 108.602 33.6969 108.593 32.8773C108.573 30.0053 108.577 27.1324 108.602 24.2595C108.611 23.352 109.901 22.6293 110.523 22.1049ZM106.314 27.8826L106.317 27.8835C106.317 27.6293 106.316 27.376 106.314 27.1226V23.9786C106.076 23.9724 105.526 23.968 104.281 23.9813L104.117 23.9831C104.056 23.984 103.994 23.9848 103.93 23.9857C101.488 24.0168 100.386 24.68 100.357 25.8675C100.339 26.6053 100.642 27.184 101.618 27.5244C102.212 27.7324 103.055 27.8515 104.227 27.8649L104.389 27.8666C105.439 27.8782 106.042 27.8817 106.314 27.8826Z" fill="white"/>
</svg>
