<svg width="18" height="18" viewBox="0 0 18 18" fill="none" xmlns="http://www.w3.org/2000/svg">
<path d="M15.9609 4.46484C16.207 3.9375 16.3125 3.58594 16.3125 3.375C16.3125 2.46094 15.5391 1.6875 14.625 1.6875C13.6758 1.6875 12.9375 2.46094 12.9375 3.375C12.9375 3.58594 13.0078 3.9375 13.2539 4.46484C13.5352 4.95703 13.8867 5.51953 14.2734 6.04688C14.3789 6.1875 14.4844 6.32812 14.625 6.46875C14.7305 6.32812 14.8359 6.1875 14.9414 6.04688C15.3281 5.51953 15.6797 4.95703 15.9609 4.46484ZM15.75 7.76953C15.1172 8.50781 14.625 9 14.625 9H10.125V11.8125H18V18H4.88672C5.20312 17.6836 5.55469 17.2266 5.94141 16.7344C6.04688 16.5938 6.15234 16.4531 6.22266 16.3125H16.3125V13.5H8.4375V7.3125H13.1484C12.2344 6.15234 11.25 4.60547 11.25 3.375C11.25 1.51172 12.7617 0 14.625 0C16.4883 0 18 1.51172 18 3.375C18 4.78125 16.7344 6.57422 15.75 7.76953ZM4.71094 13.4648C4.95703 12.9375 5.0625 12.5859 5.0625 12.375C5.0625 11.4609 4.28906 10.6875 3.375 10.6875C2.42578 10.6875 1.6875 11.4609 1.6875 12.375C1.6875 12.5859 1.75781 12.9375 2.00391 13.4648C2.28516 13.957 2.63672 14.5195 3.02344 15.0469C3.12891 15.1875 3.23438 15.3281 3.375 15.4688C3.48047 15.3281 3.58594 15.1875 3.69141 15.0469C4.07812 14.5195 4.42969 13.957 4.71094 13.4648ZM4.81641 16.3125C4.71094 16.4883 4.60547 16.6289 4.5 16.7695C4.35938 16.9102 4.25391 17.0156 4.14844 17.1562C4.14844 17.1562 4.14844 17.1914 4.11328 17.1914C4.00781 17.332 3.86719 17.4727 3.76172 17.5781C3.76172 17.5781 3.76172 17.5781 3.76172 17.6133C3.51562 17.8594 3.375 18 3.375 18C3.375 18 2.84766 17.5078 2.21484 16.7695C1.26562 15.5742 0 13.7812 0 12.375C0 10.5117 1.51172 9 3.375 9C5.23828 9 6.75 10.5117 6.75 12.375C6.75 13.6055 5.73047 15.1523 4.81641 16.3125Z" fill="white"/>
</svg>
