<svg width="52" height="12" viewBox="0 0 52 12" fill="none" xmlns="http://www.w3.org/2000/svg">
<path d="M15.262 7.5198C15.262 8.60157 15.5692 9.39576 16.1838 9.90235C16.7983 10.4089 17.6212 10.6622 18.6524 10.6622C19.694 10.6622 20.509 10.401 21.0975 9.87864C21.686 9.35621 21.9803 8.56991 21.9803 7.5198V0.00172665H23.6208V7.48814C23.6208 8.99734 23.0974 10.1266 22.0506 10.8759C21.009 11.6253 19.7044 12 18.1367 12C16.5796 12 15.2672 11.6279 14.1996 10.8839C13.1319 10.1398 12.5981 9.00791 12.5981 7.48814V0.00172665H15.262V7.5198Z" fill="white" fill-opacity="0.4"/>
<path d="M30.8277 0C32.6141 0 34.0202 0.316645 35.0462 0.949889C36.0774 1.58313 36.6008 2.36675 36.6165 3.30078L36.6243 3.45906H33.9682V3.26118C33.9578 2.68072 33.6973 2.21107 33.187 1.85224C32.6766 1.48813 31.8928 1.30604 30.8356 1.30604C29.8096 1.30604 29.0466 1.44328 28.5467 1.71767C28.0519 1.99208 27.8045 2.39577 27.8045 2.92875C27.8045 3.37202 28.0493 3.70443 28.5388 3.92606C29.0336 4.14242 30.1637 4.41421 31.9293 4.74139C33.7625 5.08967 35.0489 5.51978 35.7884 6.03166C36.5331 6.53825 36.9055 7.30345 36.9055 8.32718C36.9055 9.54616 36.3769 10.4644 35.3197 11.0818C34.2624 11.6939 32.812 12 30.9684 12C29.13 12 27.6612 11.7123 26.5623 11.1371C25.4687 10.5619 24.914 9.73079 24.8984 8.64373V8.46969H27.5701V8.63591C27.5858 9.343 27.8826 9.86541 28.4607 10.2031C29.0388 10.5356 29.8721 10.7018 30.9605 10.7018C32.049 10.7018 32.8719 10.525 33.4292 10.1715C33.9864 9.81264 34.2702 9.37464 34.2806 8.85749C34.3015 8.33508 34.075 7.97357 33.6011 7.77304C33.1323 7.56724 31.9683 7.28756 30.1091 6.934C28.255 6.58572 26.966 6.15827 26.2421 5.65168C25.5182 5.1398 25.1563 4.36673 25.1563 3.33244C25.1563 2.27703 25.6562 1.45911 26.6562 0.878636C27.6561 0.2929 29.0466 0 30.8277 0Z" fill="white" fill-opacity="0.4"/>
<path fill-rule="evenodd" clip-rule="evenodd" d="M45.0473 0C47.068 0 48.732 0.490739 50.0392 1.47226C51.3464 2.45379 52 3.905 52 5.82584V6.15033C52 8.08172 51.3464 9.54082 50.0392 10.5276C48.732 11.5092 47.068 12 45.0473 12C43.0214 12 41.3574 11.5092 40.0554 10.5276C38.7534 9.54082 38.1024 8.0817 38.1024 6.15033V5.82584C38.1024 3.905 38.7509 2.45379 40.0477 1.47226C41.3497 0.490757 43.0162 3.43134e-06 45.0473 0ZM45.0473 1.33769C43.787 1.3377 42.7714 1.70453 42.0006 2.43803C41.2351 3.17154 40.8522 4.27969 40.8522 5.76253V6.22159C40.8522 7.71499 41.2377 8.83113 42.0085 9.56991C42.7793 10.3034 43.7922 10.6701 45.0473 10.6701C46.3076 10.6701 47.3233 10.3034 48.0941 9.56991C48.87 8.83113 49.258 7.71497 49.258 6.22159V5.77047C49.258 4.28238 48.87 3.17154 48.0941 2.43803C47.3233 1.70453 46.3076 1.33769 45.0473 1.33769Z" fill="white" fill-opacity="0.4"/>
<path d="M5.70272 0.00172665C7.43178 0.00172665 8.75992 0.299828 9.68695 0.896132C10.6192 1.48716 11.0852 2.45205 11.0852 3.55495C11.0852 4.64728 10.6165 5.61473 9.67911 6.22159C9.35693 6.43132 8.9874 6.60533 8.57067 6.74384L11.8118 11.9983H8.70257L5.8019 7.1465C5.76644 7.14697 5.7308 7.14754 5.695 7.14776H2.66391V11.9983H0V5.88282H3.49902V5.88121H5.65592C6.68708 5.8812 7.40316 5.68335 7.80418 5.28758C8.21041 4.89181 8.41356 4.2409 8.41356 3.57072C8.41354 2.89 8.21039 2.24184 7.80418 1.86191C7.40317 1.47669 6.68709 1.28406 5.65592 1.28405L0 1.28417V0.00172665H5.70272Z" fill="white" fill-opacity="0.4"/>
</svg>
