<svg width="16" height="16" viewBox="0 0 16 16" fill="none" xmlns="http://www.w3.org/2000/svg">
<path d="M10.0156 2.5V8.78571H0V2.5H10.0156ZM2.40376 3.67857H1.6025V7.60714H2.40376V3.67857ZM5.60876 3.67857V7.60714H6.41002V3.67857H5.60876ZM4.40689 3.67857H3.60563V7.60714H4.40689V3.67857ZM7.61189 3.67857V7.60714H8.41315V3.67857H7.61189ZM10.8169 5.64286H13.8466L16 7.75446V11.1429H15.1737C15.1987 11.2902 15.1987 11.4129 15.1987 11.5357C15.1987 12.6406 14.3224 13.5 13.1956 13.5C12.0939 13.5 11.1925 12.6406 11.1925 11.5357C11.1925 11.4129 11.2175 11.2902 11.2426 11.1429H7.16119C7.18623 11.2902 7.21127 11.4129 7.21127 11.5357C7.21127 12.6406 6.30986 13.5 5.20814 13.5C4.53208 13.5 3.95618 13.2054 3.60563 12.7143C3.23005 13.2054 2.65415 13.5 2.00313 13.5C0.876369 13.5 0 12.6406 0 11.5357V9.57143H10.8169V5.64286ZM12.0188 8H14.5728L13.3709 6.82143H12.0188V8ZM14.0219 11.5357C14.0219 11.1183 13.6463 10.75 13.2207 10.75C12.77 10.75 12.4194 11.1183 12.4194 11.5357C12.4194 11.9777 12.77 12.3214 13.2207 12.3214C13.6463 12.3214 14.0219 11.9777 14.0219 11.5357ZM5.20814 12.3214C5.6338 12.3214 6.00939 11.9777 6.00939 11.5357C6.00939 11.1183 5.6338 10.75 5.20814 10.75C4.75743 10.75 4.40689 11.1183 4.40689 11.5357C4.40689 11.9777 4.75743 12.3214 5.20814 12.3214ZM2.80438 11.5357C2.80438 11.1183 2.42879 10.75 2.00313 10.75C1.55243 10.75 1.20188 11.1183 1.20188 11.5357C1.20188 11.9777 1.55243 12.3214 2.00313 12.3214C2.42879 12.3214 2.80438 11.9777 2.80438 11.5357Z" fill="white"/>
</svg>
