<svg width="16" height="12" viewBox="0 0 16 12" fill="none" xmlns="http://www.w3.org/2000/svg">
<path d="M5.33333 0H10.6667V1.5H13.3333V5.625L16 6.375L12.25 9.28125C12.0833 9.35156 11.9444 9.42188 11.7778 9.49219C11.4167 9.63281 11.0278 9.72656 10.6667 9.72656C10.3056 9.72656 9.88889 9.63281 9.52778 9.49219C9.19444 9.375 8.91667 9.21094 8.52778 8.97656L8 8.625L7.47222 8.95312L7.44444 8.97656C7.05556 9.21094 6.77778 9.375 6.44444 9.49219C6.08333 9.63281 5.69444 9.72656 5.33333 9.72656C4.97222 9.72656 4.55556 9.63281 4.19444 9.49219C4.02778 9.42188 3.88889 9.35156 3.72222 9.28125L0 6.375L2.66667 5.625V1.5H5.33333V0ZM4.44444 5.13281L8 4.125L11.5556 5.13281V3H4.44444V5.13281ZM7.55556 11.5781C7 11.7891 6.19444 12 5.33333 12C4.44444 12 3.63889 11.7891 3.08333 11.5781C2.91667 11.5078 2.77778 11.4375 2.66667 11.3906C2.52778 11.4375 2.38889 11.5078 2.22222 11.5781C1.66667 11.7891 0.861111 12 0 12V10.5C0.527778 10.5 1.05556 10.3594 1.5 10.1953C1.88889 10.0547 2.22222 9.84375 2.61111 9.63281C2.61111 9.60938 2.63889 9.60938 2.66667 9.58594C2.66667 9.60938 2.69444 9.60938 2.72222 9.63281C3.08333 9.84375 3.41667 10.0547 3.83333 10.1953C4.25 10.3594 4.77778 10.5 5.33333 10.5C5.86111 10.5 6.38889 10.3594 6.83333 10.1953C7.25 10.0547 7.58333 9.84375 7.94444 9.63281C7.94444 9.60938 7.97222 9.60938 8 9.58594C8.02778 9.60938 8.02778 9.60938 8.05556 9.63281C8.41667 9.84375 8.75 10.0547 9.16667 10.1953C9.58333 10.3594 10.1389 10.5 10.6667 10.5C11.1944 10.5 11.75 10.3594 12.1667 10.1953C12.5833 10.0547 12.9167 9.84375 13.2778 9.63281C13.3056 9.60938 13.3056 9.60938 13.3333 9.58594C13.3611 9.60938 13.3611 9.60938 13.3889 9.63281C13.75 9.84375 14.0833 10.0547 14.5 10.1953C14.9444 10.3594 15.4722 10.5 16 10.5V12C15.1111 12 14.3333 11.7891 13.7778 11.5781C13.6111 11.5078 13.4722 11.4375 13.3333 11.3906C13.2222 11.4375 13.0556 11.5078 12.9167 11.5781C12.3611 11.7891 11.5556 12 10.6667 12C9.77778 12 9 11.7891 8.44444 11.5781C8.27778 11.5078 8.13889 11.4375 8 11.3906C7.88889 11.4375 7.72222 11.5078 7.58333 11.5781H7.55556Z" fill="white"/>
</svg>
