<svg width="57" height="42" viewBox="0 0 57 42" fill="none" xmlns="http://www.w3.org/2000/svg">
<g clip-path="url(#clip0_58_3269)">
<path d="M55.6154 37.3462V6.57698H51.7693V1.76929H30.5674V6.57698H1.76929V37.3462H55.6154Z" stroke="#FA4332" stroke-width="1.8" stroke-linecap="square"/>
<path d="M17.1539 37.3462H5.61548V40.2308H17.1539V37.3462Z" stroke="#FA4332" stroke-width="1.8" stroke-linecap="square"/>
<path d="M51.7693 37.3462H40.2308V40.2308H51.7693V37.3462Z" stroke="#FA4332" stroke-width="1.8" stroke-linecap="square"/>
<path d="M26.7693 10.4231H5.61548V25.8077H26.7693V10.4231Z" stroke="#FA4332" stroke-width="1.8" stroke-linecap="square"/>
<path d="M10.4232 12.8269V23.4038" stroke="#FA4332" stroke-width="1.8" stroke-linecap="square"/>
<path d="M14.2693 12.8269V23.4038" stroke="#FA4332" stroke-width="1.8" stroke-linecap="square"/>
<path d="M18.1155 12.8269V23.4038" stroke="#FA4332" stroke-width="1.8" stroke-linecap="square"/>
<path d="M21.9616 12.8269V23.4038" stroke="#FA4332" stroke-width="1.8" stroke-linecap="square"/>
<path d="M26.7693 30.1346H5.61548V33.0193H26.7693V30.1346Z" stroke="#FA4332" stroke-width="1.8" stroke-linecap="square"/>
<path d="M51.7693 1.76929H30.6155V22.9231H51.7693V1.76929Z" stroke="#FA4332" stroke-width="1.8" stroke-linecap="square"/>
<path d="M44.0771 5.4231L39.013 11.8173H43.6925L38.2117 19.2212" stroke="#FA4332" stroke-width="1.8"/>
<path d="M35.9039 33.0192C37.497 33.0192 38.7885 31.7277 38.7885 30.1346C38.7885 28.5415 37.497 27.25 35.9039 27.25C34.3108 27.25 33.0193 28.5415 33.0193 30.1346C33.0193 31.7277 34.3108 33.0192 35.9039 33.0192Z" stroke="#FA4332" stroke-width="1.8"/>
<path d="M46.4808 33.0192C48.0739 33.0192 49.3654 31.7277 49.3654 30.1346C49.3654 28.5415 48.0739 27.25 46.4808 27.25C44.8877 27.25 43.5962 28.5415 43.5962 30.1346C43.5962 31.7277 44.8877 33.0192 46.4808 33.0192Z" stroke="#FA4332" stroke-width="1.8"/>
</g>
<defs>
<clipPath id="clip0_58_3269">
<rect width="57" height="42" fill="white"/>
</clipPath>
</defs>
</svg>
