<svg width="57" height="42" viewBox="0 0 57 42" fill="none" xmlns="http://www.w3.org/2000/svg">
<g clip-path="url(#clip0_51_3033)">
<path d="M7.36871 40.2179L23.0112 40.2179L23.0112 37.0894L7.36871 37.0894L7.36871 40.2179Z" stroke="#FA4332" stroke-width="1.8" stroke-linecap="square"/>
<path d="M15.9162 39.771L14.1844 37.4805" stroke="#FA4332" stroke-width="1.8" stroke-linecap="square"/>
<path d="M19.9385 39.771L18.2067 37.4805" stroke="#FA4332" stroke-width="1.8" stroke-linecap="square"/>
<path d="M4.01676 37.0894L26.3631 37.0894L26.3631 30.3854L4.01676 30.3854L4.01676 37.0894Z" stroke="#FA4332" stroke-width="1.8" stroke-linecap="square"/>
<path d="M1.78214 30.3855L28.5978 30.3855L28.5978 27.257L1.78214 27.257L1.78214 30.3855Z" stroke="#FA4332" stroke-width="1.8" stroke-linecap="square"/>
<path d="M4.01676 10.7207L26.3631 10.7207L26.3631 17.4246L4.01676 17.4246L4.01676 10.7207Z" stroke="#FA4332" stroke-width="1.8" stroke-linecap="square"/>
<path d="M1.78214 17.4246L28.5978 17.4246L28.5978 20.5531L1.78213 20.553L1.78214 17.4246Z" stroke="#FA4332" stroke-width="1.8" stroke-linecap="square"/>
<path d="M11.2793 10.7207L19.1006 10.7207L19.1006 1.78216L11.2793 1.78216L11.2793 10.7207Z" stroke="#FA4332" stroke-width="1.8" stroke-linecap="square"/>
<path d="M14.9106 10.2737L13.4022 2.34072" stroke="#FA4332" stroke-width="1.8" stroke-linecap="square"/>
<path d="M17.0335 10.2737L15.5251 2.34072" stroke="#FA4332" stroke-width="1.8" stroke-linecap="square"/>
</g>
<defs>
<clipPath id="clip0_51_3033">
<rect width="30" height="42" fill="white"/>
</clipPath>
</defs>
</svg>
