<svg width="57" height="42" viewBox="0 0 57 42" fill="none" xmlns="http://www.w3.org/2000/svg">
<path d="M36.1625 30.9744H5.93966C3.66353 30.9744 1.81836 33.0355 1.81836 35.5779C1.81836 38.1204 3.66353 40.1815 5.93966 40.1815H36.1625C38.4387 40.1815 40.2838 38.1204 40.2838 35.5779C40.2838 33.0355 38.4387 30.9744 36.1625 30.9744Z" stroke="#FA4332" stroke-width="1.8" stroke-linecap="square"/>
<path d="M6.72891 37.8287C7.9719 37.8287 8.97955 36.821 8.97955 35.578C8.97955 34.335 7.9719 33.3274 6.72891 33.3274C5.48592 33.3274 4.47827 34.335 4.47827 35.578C4.47827 36.821 5.48592 37.8287 6.72891 37.8287Z" stroke="#FA4332" stroke-width="1.8"/>
<path d="M16.2429 37.8287C17.4859 37.8287 18.4936 36.821 18.4936 35.578C18.4936 34.335 17.4859 33.3274 16.2429 33.3274C15 33.3274 13.9923 34.335 13.9923 35.578C13.9923 36.821 15 37.8287 16.2429 37.8287Z" stroke="#FA4332" stroke-width="1.8"/>
<path d="M25.8593 37.8287C27.1023 37.8287 28.1099 36.821 28.1099 35.578C28.1099 34.335 27.1023 33.3274 25.8593 33.3274C24.6163 33.3274 23.6086 34.335 23.6086 35.578C23.6086 36.821 24.6163 37.8287 25.8593 37.8287Z" stroke="#FA4332" stroke-width="1.8"/>
<path d="M35.3734 37.8287C36.6164 37.8287 37.6241 36.821 37.6241 35.578C37.6241 34.335 36.6164 33.3274 35.3734 33.3274C34.1304 33.3274 33.1228 34.335 33.1228 35.578C33.1228 36.821 34.1304 37.8287 35.3734 37.8287Z" stroke="#FA4332" stroke-width="1.8"/>
<path d="M19.6189 14.0946H5.70581V26.8823H36.3963V20.4885L19.6189 14.0946Z" stroke="#FA4332" stroke-width="1.8" stroke-linecap="square"/>
<path d="M19.5677 1.81836H31.2813L34.8619 19.9769L19.5677 13.9923V1.81836Z" stroke="#FA4332" stroke-width="1.8" stroke-linecap="square"/>
<path d="M8.97949 17.3683H17.3682V20.0281H8.97949V17.3683Z" stroke="#FA4332" stroke-width="1.8" stroke-linecap="square"/>
<path d="M43.8133 14.9131L41.7161 25.5013" stroke="#FA4332" stroke-width="1.8" stroke-linecap="square"/>
<path d="M12.0997 5.80823V13.7366" stroke="#FA4332" stroke-width="1.8" stroke-linecap="square"/>
<path d="M49.4398 37.2659L41.7161 25.5012" stroke="#FA4332" stroke-width="1.8" stroke-linecap="square"/>
<path d="M41.2558 25.757L36.7545 23.6598" stroke="#FA4332" stroke-width="1.8" stroke-linecap="square"/>
</svg>
